<?xml version="1.0" encoding="UTF-8" standalone="no"?><!DOCTYPE svg PUBLIC "-//W3C//DTD SVG 1.1//EN" "http://www.w3.org/Graphics/SVG/1.1/DTD/svg11.dtd"><svg width="100%" height="100%" viewBox="0 0 667 125" version="1.1" xmlns="http://www.w3.org/2000/svg" xmlns:xlink="http://www.w3.org/1999/xlink" xml:space="preserve" xmlns:serif="http://www.serif.com/" style="fill-rule:evenodd;clip-rule:evenodd;stroke-linejoin:round;stroke-miterlimit:2;"><path d="M5.669,30.736l6.318,-0l-0,-7.205l4.238,0c3.21,0 5.702,-0.764 7.474,-2.292c1.772,-1.528 2.658,-3.679 2.658,-6.453c0,-2.748 -0.893,-4.887 -2.678,-6.415c-1.785,-1.528 -4.27,-2.292 -7.454,-2.292l-10.556,-0l-0,24.657Zm14.254,-15.95c0,1.053 -0.289,1.843 -0.867,2.369c-0.578,0.527 -1.457,0.79 -2.639,0.79l-4.43,-0l-0,-6.28l4.43,0c1.156,0 2.029,0.263 2.62,0.79c0.591,0.527 0.886,1.303 0.886,2.331Z" style="fill-rule:nonzero;"/><path d="M30.017,30.736l6.318,-0l0,-9.825l9.863,0l-0,9.825l6.318,-0l0,-24.657l-6.318,-0l-0,9.246l-9.863,0l0,-9.246l-6.318,-0l-0,24.657Z" style="fill-rule:nonzero;"/><path d="M69.352,5.694c-3.75,-0 -6.87,1.213 -9.362,3.64c-2.491,2.428 -3.737,5.452 -3.737,9.073c0,3.622 1.246,6.646 3.737,9.073c2.492,2.427 5.612,3.641 9.362,3.641c3.75,-0 6.87,-1.214 9.362,-3.641c2.491,-2.427 3.737,-5.451 3.737,-9.073c-0,-3.621 -1.246,-6.645 -3.737,-9.073c-2.492,-2.427 -5.612,-3.64 -9.362,-3.64Zm0,19.571c-1.978,-0 -3.576,-0.629 -4.796,-1.888c-1.22,-1.258 -1.83,-2.915 -1.83,-4.97c-0,-2.08 0.61,-3.756 1.83,-5.027c1.22,-1.272 2.818,-1.907 4.796,-1.907c1.978,-0 3.57,0.635 4.777,1.907c1.207,1.271 1.811,2.947 1.811,5.027c-0,2.055 -0.604,3.712 -1.811,4.97c-1.207,1.259 -2.799,1.888 -4.777,1.888Z" style="fill-rule:nonzero;"/><path d="M86.188,30.736l6.087,-0l-0,-14.409l11.018,14.409l6.088,-0l-0,-24.657l-6.088,-0l0,14.486l-11.018,-14.486l-6.087,-0l-0,24.657Z" style="fill-rule:nonzero;"/><path d="M114.504,30.736l18.185,-0l-0,-5.741l-11.866,0l-0,-3.929l10.71,-0l-0,-5.51l-10.71,0l-0,-3.737l11.866,0l-0,-5.74l-18.185,-0l0,24.657Z" style="fill-rule:nonzero;"/><path d="M149.563,30.736l17.761,-0l-0,-5.856l-11.443,-0l0,-18.801l-6.318,-0l0,24.657Z" style="fill-rule:nonzero;"/><path d="M189.784,11.241l-4.353,0l-1.31,1.696c-0.668,-0.668 -1.451,-1.182 -2.35,-1.541c-0.899,-0.36 -1.862,-0.54 -2.89,-0.54c-2.671,0 -4.937,0.963 -6.799,2.89c-1.863,1.926 -2.794,4.34 -2.794,7.243c0,2.902 0.931,5.316 2.794,7.242c1.862,1.927 4.128,2.89 6.799,2.89c1.028,-0 1.991,-0.18 2.89,-0.54c0.899,-0.359 1.682,-0.873 2.35,-1.541l1.31,1.696l4.353,-0l0,-19.495Zm-10.017,14.371c-1.258,-0 -2.279,-0.424 -3.062,-1.272c-0.784,-0.847 -1.175,-1.965 -1.175,-3.351c-0,-1.387 0.398,-2.511 1.194,-3.372c0.796,-0.86 1.811,-1.29 3.043,-1.29c1.233,-0 2.248,0.43 3.044,1.29c0.796,0.861 1.194,1.985 1.194,3.372c0,1.386 -0.391,2.504 -1.175,3.351c-0.783,0.848 -1.804,1.272 -3.063,1.272Z" style="fill-rule:nonzero;"/><path d="M198.799,30.736l1.272,-1.657c0.719,0.668 1.521,1.175 2.408,1.522c0.886,0.346 1.83,0.52 2.831,0.52c2.671,-0 4.938,-0.963 6.8,-2.89c1.862,-1.926 2.793,-4.34 2.793,-7.242c0,-2.903 -0.931,-5.317 -2.793,-7.243c-1.862,-1.927 -4.129,-2.89 -6.8,-2.89c-0.924,0 -1.778,0.135 -2.562,0.405c-0.783,0.269 -1.483,0.674 -2.099,1.213l-0,-8.321l-6.203,-0l-0,26.583l4.353,-0Zm5.625,-14.409c1.233,-0 2.247,0.43 3.044,1.29c0.796,0.861 1.194,1.985 1.194,3.372c-0,1.386 -0.398,2.504 -1.194,3.351c-0.797,0.848 -1.811,1.272 -3.044,1.272c-1.258,-0 -2.279,-0.424 -3.063,-1.272c-0.783,-0.847 -1.175,-1.965 -1.175,-3.351c0,-1.387 0.392,-2.511 1.175,-3.372c0.784,-0.86 1.805,-1.29 3.063,-1.29Z" style="fill-rule:nonzero;"/></svg>