<?xml version="1.0" encoding="UTF-8" standalone="no"?><!DOCTYPE svg PUBLIC "-//W3C//DTD SVG 1.1//EN" "http://www.w3.org/Graphics/SVG/1.1/DTD/svg11.dtd"><svg width="100%" height="100%" viewBox="0 0 925 267" version="1.1" xmlns="http://www.w3.org/2000/svg" xmlns:xlink="http://www.w3.org/1999/xlink" xml:space="preserve" xmlns:serif="http://www.serif.com/" style="fill-rule:evenodd;clip-rule:evenodd;stroke-linejoin:round;stroke-miterlimit:2;"><g><path d="M39.119,153.218c-3.419,-0 -6.197,-0.81 -8.333,-2.429c-2.137,-1.62 -3.295,-3.779 -3.475,-6.478l-6.275,0c0.18,4.274 1.9,7.726 5.161,10.358c3.262,2.631 7.524,3.947 12.787,3.947c5.038,-0 9.019,-1.136 11.943,-3.408c2.924,-2.271 4.385,-5.364 4.385,-9.277c0,-3.374 -1.135,-6.084 -3.407,-8.131c-2.272,-2.047 -5.612,-3.385 -10.02,-4.015l-3.913,-0.607c-3.554,-0.495 -6.152,-1.304 -7.794,-2.429c-1.641,-1.125 -2.462,-2.699 -2.462,-4.723c-0,-2.114 0.832,-3.756 2.496,-4.926c1.664,-1.169 4.004,-1.754 7.017,-1.754c3.284,-0 5.826,0.708 7.625,2.125c1.799,1.417 2.856,3.52 3.171,6.309l6.14,0c-0.314,-4.318 -1.968,-7.692 -4.959,-10.121c-2.991,-2.429 -7.006,-3.644 -12.044,-3.644c-4.768,0 -8.547,1.114 -11.336,3.34c-2.789,2.227 -4.183,5.207 -4.183,8.941c-0,3.418 1.226,6.219 3.677,8.4c2.452,2.182 5.972,3.61 10.56,4.285l3.913,0.54c3.239,0.45 5.601,1.203 7.085,2.26c1.485,1.057 2.227,2.553 2.227,4.487c-0,2.204 -0.889,3.914 -2.665,5.128c-1.777,1.215 -4.218,1.822 -7.321,1.822Z" style="fill-rule:nonzero;"/><path d="M90.197,154.297l12.212,-31.173l3.442,34.75l6.072,-0l-4.318,-43.184l-7.49,0l-12.685,32.455l-12.685,-32.455l-7.625,0l-4.25,43.184l5.802,-0l3.509,-34.412l12.28,30.835l5.736,0Z" style="fill-rule:nonzero;"/><path d="M136.686,114.69l-19.162,43.184l6.275,-0l5.06,-11.673l21.524,-0l5.061,11.673l6.545,-0l-19.095,-43.184l-6.208,0Zm2.969,6.68l8.434,19.5l-16.868,0l8.434,-19.5Z" style="fill-rule:nonzero;"/><path d="M204.363,157.874l-11.201,-16.734c3.194,-0.9 5.634,-2.452 7.321,-4.656c1.687,-2.204 2.53,-4.925 2.53,-8.164c0,-4.318 -1.451,-7.67 -4.352,-10.054c-2.901,-2.384 -6.939,-3.576 -12.112,-3.576l-16.801,0l0,43.184l5.938,-0l0,-15.924l11.403,-0l10.256,15.924l7.018,-0Zm-7.423,-29.487c0,2.654 -0.899,4.712 -2.698,6.174c-1.8,1.462 -4.319,2.193 -7.558,2.193l-10.998,0l0,-16.733l10.998,-0c3.239,-0 5.758,0.731 7.558,2.193c1.799,1.462 2.698,3.519 2.698,6.173Z" style="fill-rule:nonzero;"/><path d="M224.402,120.156l0,37.718l6.006,-0l-0,-37.718l16.058,-0l0,-5.466l-38.122,0l-0,5.466l16.058,-0Z" style="fill-rule:nonzero;"/><path d="M252.337,157.874l11.065,-0l0,-12.618l7.423,-0c5.622,-0 9.986,-1.338 13.09,-4.015c3.103,-2.676 4.655,-6.444 4.655,-11.302c0,-4.813 -1.563,-8.558 -4.689,-11.234c-3.127,-2.677 -7.479,-4.015 -13.056,-4.015l-18.488,0l-0,43.184Zm24.965,-27.935c0,1.845 -0.506,3.228 -1.518,4.15c-1.012,0.922 -2.553,1.383 -4.622,1.383l-7.76,0l0,-10.998l7.76,-0c2.024,-0 3.554,0.461 4.588,1.383c1.035,0.922 1.552,2.283 1.552,4.082Z" style="fill-rule:nonzero;"/><path d="M294.98,157.874l11.066,-0l0,-17.206l17.273,-0l0,17.206l11.066,-0l0,-43.184l-11.066,0l0,16.194l-17.273,-0l0,-16.194l-11.066,0l0,43.184Z" style="fill-rule:nonzero;"/><path d="M363.871,114.015c-6.567,0 -12.033,2.126 -16.396,6.377c-4.363,4.251 -6.545,9.547 -6.545,15.89c0,6.342 2.182,11.639 6.545,15.89c4.363,4.251 9.829,6.376 16.396,6.376c6.568,0 12.033,-2.125 16.396,-6.376c4.364,-4.251 6.545,-9.548 6.545,-15.89c0,-6.343 -2.181,-11.639 -6.545,-15.89c-4.363,-4.251 -9.828,-6.377 -16.396,-6.377Zm0,34.277c-3.463,0 -6.264,-1.102 -8.4,-3.306c-2.137,-2.204 -3.205,-5.105 -3.205,-8.704c-0,-3.644 1.068,-6.579 3.205,-8.805c2.136,-2.227 4.937,-3.34 8.4,-3.34c3.464,-0 6.253,1.113 8.367,3.34c2.114,2.226 3.171,5.161 3.171,8.805c0,3.599 -1.057,6.5 -3.171,8.704c-2.114,2.204 -4.903,3.306 -8.367,3.306Z" style="fill-rule:nonzero;"/><path d="M393.357,157.874l10.661,-0l0,-25.236l19.298,25.236l10.661,-0l-0,-43.184l-10.661,0l-0,25.37l-19.298,-25.37l-10.661,0l0,43.184Z" style="fill-rule:nonzero;"/><path d="M442.951,157.874l31.848,-0l-0,-10.054l-20.782,-0l-0,-6.882l18.757,-0l0,-9.649l-18.757,-0l-0,-6.545l20.782,-0l-0,-10.054l-31.848,0l-0,43.184Z" style="fill-rule:nonzero;"/><path d="M504.352,157.874l11.066,-0l-0,-12.618l7.422,-0c5.623,-0 9.986,-1.338 13.09,-4.015c3.104,-2.676 4.656,-6.444 4.656,-11.302c-0,-4.813 -1.563,-8.558 -4.69,-11.234c-3.126,-2.677 -7.478,-4.015 -13.056,-4.015l-18.488,0l0,43.184Zm24.966,-27.935c-0,1.845 -0.506,3.228 -1.519,4.15c-1.012,0.922 -2.552,1.383 -4.622,1.383l-7.759,0l-0,-10.998l7.759,-0c2.025,-0 3.554,0.461 4.589,1.383c1.034,0.922 1.552,2.283 1.552,4.082Z" style="fill-rule:nonzero;"/><path d="M561.368,114.69l-18.016,43.184l11.606,-0l3.239,-8.03l17.408,0l3.239,8.03l12.01,-0l-18.016,-43.184l-11.47,0Zm5.533,13.36l4.79,11.943l-9.581,-0l4.791,-11.943Z" style="fill-rule:nonzero;"/><path d="M633.43,157.874l-8.367,-15.452c2.294,-1.259 4.038,-2.98 5.23,-5.162c1.192,-2.181 1.788,-4.712 1.788,-7.591c-0,-4.723 -1.485,-8.4 -4.454,-11.032c-2.969,-2.631 -7.084,-3.947 -12.347,-3.947l-19.028,0l-0,43.184l11.066,-0l-0,-13.225l7.152,-0l6.275,13.225l12.685,-0Zm-12.618,-28.002c0,1.664 -0.461,2.957 -1.383,3.88c-0.922,0.922 -2.193,1.383 -3.812,1.383l-8.299,-0l-0,-10.661l8.299,-0c1.664,-0 2.946,0.472 3.846,1.417c0.9,0.945 1.349,2.272 1.349,3.981Z" style="fill-rule:nonzero;"/><path d="M650.973,124.946l0,32.928l11.066,-0l0,-32.928l14.305,0l-0,-10.256l-39.743,0l0,10.256l14.372,0Z" style="fill-rule:nonzero;"/><path d="M698.677,148.697c-1.934,0 -3.553,-0.416 -4.858,-1.248c-1.304,-0.832 -1.934,-1.878 -1.889,-3.138l-11.605,0c-0.09,4.094 1.585,7.49 5.026,10.189c3.442,2.699 7.839,4.048 13.192,4.048c5.307,0 9.502,-1.293 12.583,-3.879c3.082,-2.587 4.622,-6.062 4.622,-10.425c0,-3.509 -1.09,-6.365 -3.272,-8.569c-2.182,-2.204 -5.387,-3.666 -9.615,-4.386l-3.711,-0.607c-3.239,-0.54 -5.274,-1.046 -6.107,-1.519c-0.832,-0.472 -1.248,-1.158 -1.248,-2.058c0,-1.034 0.529,-1.855 1.586,-2.462c1.057,-0.608 2.44,-0.911 4.149,-0.911c1.8,-0 3.25,0.371 4.353,1.113c1.102,0.742 1.585,1.721 1.45,2.935l11.268,0c0.18,-4.048 -1.36,-7.354 -4.622,-9.918c-3.261,-2.565 -7.455,-3.847 -12.584,-3.847c-5.083,0 -9.187,1.271 -12.314,3.813c-3.126,2.541 -4.689,5.904 -4.689,10.087c0,3.419 1.248,6.298 3.745,8.637c2.496,2.339 6.039,3.891 10.627,4.656l3.711,0.539c2.204,0.405 3.711,0.866 4.521,1.384c0.81,0.517 1.214,1.293 1.214,2.327c0,0.99 -0.506,1.777 -1.518,2.362c-1.012,0.585 -2.35,0.877 -4.015,0.877Z" style="fill-rule:nonzero;"/></g></svg>